<svg role="img" viewBox="0 0 24 24" xmlns="http://www.w3.org/2000/svg">
  <circle cx="12" cy="12" r="2.4" fill="#61DAFB"/>
  <path d="M12 2.4c1.6 0 3.1.2 4.5.6 2.3.7 3.5 1.8 3.5 3 0 1.2-1.2 2.3-3.5 3-.8.3-1.7.4-2.7.5l-.3.8c-.1.4-.3.8-.5 1.2 1.4.2 2.8.5 4.1.9 2.3.7 3.5 1.8 3.5 3s-1.2 2.3-3.5 3c-1.4.4-2.9.6-4.5.6s-3.1-.2-4.5-.6c-2.3-.7-3.5-1.8-3.5-3s1.2-2.3 3.5-3c1.3-.4 2.7-.7 4.1-.9-.2-.4-.4-.8-.5-1.2l-.3-.8c-1-.1-1.9-.2-2.7-.5-2.3-.7-3.5-1.8-3.5-3s1.2-2.3 3.5-3c1.4-.4 2.9-.6 4.5-.6z" fill="none" stroke="#61DAFB" stroke-width="1.2"/>
  <path d="M12 7.2c-1.6 0-3.1.2-4.5.6-1.2.3-2.2.8-2.9 1.3-.7.5-1.1 1-.6 1.5.5.5 1.9.8 3.5.5 1.4-.2 2.9-.7 4.5-.7s3.1.5 4.5.7c1.6.3 3-.0 3.5-.5.5-.5.1-1-.6-1.5-.7-.5-1.7-1-2.9-1.3-1.4-.4-2.9-.6-4.5-.6z" fill="none" stroke="#61DAFB" stroke-width="0.8"/>
</svg>